:SAMPLES-PER-SECOND 30
:FULLY-SPECIFIED
:DEGREES
192
root  -22.7144 39.5448 -10.7416 70.8904 -88.6272 -71.7775
RightUpLeg  -17.4316 -5.35852 -3.23873
RightLeg  13.0149 -2.27029 -0.459585
RightFoot  9.19964 -3.61845 19.9125
RightToes  -5.8209e-011 0 -3.6325e-017
Spine  4.58481 -4.00122 -4.64188
Spine1  -4.62298 -5.26776 10.8397
HEad  0.272883 -3.91838 -3.05238
LeftShoulder1  1.24732 16.2084 20.7587
LeftArm  -79.2412 -14.5085 -9.22701
LeftForeArm  102.226 -65.7408 -151.623
LeftHand  -0.42578 2.51477 16.9645
RightShoulder  1.28821 -12.8668 -25.1162
RightArm  -92.3355 2.84228 13.9047
RightForeArm  113.582 63.2223 155.193
RightHand  -4.62666 8.5418 -37.51
LeftUpLeg  1.1911 4.4623 3.22265
LeftLeg  38.2584 -6.66665 -5.32832
LeftFoot  12.6041 5.84889 -27.5219
LeftToes  6.82088e-011 -2.45093e-011 5.71991e-013
193
root  -24.0697 38.3382 -10.9704 51.2877 -86.9838 -55.5522
RightUpLeg  -18.5991 -3.33364 -1.12863
RightLeg  25.8851 -6.2314 -3.7036
RightFoot  0.380702 -1.58734 15.4744
RightToes  -5.8209e-011 0 -3.6325e-017
Spine  9.67072 -4.61796 -2.75567
Spine1  -5.76847 -5.49047 10.4333
HEad  0.491657 -4.48598 -3.2324
LeftShoulder1  1.37018 14.9744 23.2232
LeftArm  -84.3128 -18.0296 -9.86854
LeftForeArm  99.8415 -66.6099 -150.48
LeftHand  -0.338154 2.95577 15.9491
RightShoulder  1.37393 -12.5851 -26.6191
RightArm  -96.8469 5.58853 14.6482
RightForeArm  114.136 63.6161 155.041
RightHand  -4.77221 8.84812 -37.8313
LeftUpLeg  -0.0580931 1.16103 6.03893
LeftLeg  50.1323 -9.28875 -11.427
LeftFoot  16.4617 7.08827 -28.6171
LeftToes  6.82088e-011 -2.45093e-011 5.71991e-013
194
root  -25.3983 37.0507 -11.1001 47.9025 -85.1546 -56.1817
RightUpLeg  -17.6523 0.710224 0.653288
RightLeg  38.3279 -9.38477 -8.04104
RightFoot  -8.85258 -0.35489 14.2964
RightToes  -5.8209e-011 0 -3.6325e-017
Spine  13.1142 -5.57022 0.0359682
Spine1  -5.31375 -5.58576 7.75106
HEad  0.456871 -4.78712 -2.93831
LeftShoulder1  0.989135 10.2473 26.3259
LeftArm  -80.4973 -24.611 -9.74113
LeftForeArm  69.0041 -75.6236 -113.766
LeftHand  -0.537938 1.66615 16.473
RightShoulder  1.24821 -11.2067 -27.8174
RightArm  -91.4446 11.7971 14.9407
RightForeArm  105.555 70.4009 142.885
RightHand  -4.77924 8.77369 -38.0732
LeftUpLeg  -1.19319 -2.95818 8.23237
LeftLeg  61.4002 -9.51685 -17.5647
LeftFoot  16.8488 5.93492 -23.68
LeftToes  6.82088e-011 -2.45093e-011 5.71991e-013
195
root  -26.7403 36.2887 -11.06 48.4662 -83.9273 -59.5492
RightUpLeg  -15.3228 1.63556 2.145
RightLeg  44.9826 -8.51985 -9.30527
RightFoot  -14.5914 0.338537 15.3281
RightToes  -5.8209e-011 0 -3.6325e-017
Spine  12.9917 -6.09791 2.28981
Spine1  -2.82996 -5.52506 5.22763
HEad  0.31607 -4.91012 -2.91902
LeftShoulder1  0.590883 6.76633 29.9152
LeftArm  -71.1799 -33.1467 -9.30496
LeftForeArm  -5.18566 -64.9958 -26.3499
LeftHand  -1.0945 -1.12618 19.5205
RightShoulder  1.20243 -10.0586 -30.1578
RightArm  -79.9407 18.5414 14.3464
RightForeArm  46.2031 77.5456 77.3378
RightHand  -4.9763 9.13839 -38.5728
LeftUpLeg  -3.15058 -5.76471 9.81635
LeftLeg  68.6381 -6.18813 -16.1241
LeftFoot  12.5398 3.91298 -18.726
LeftToes  6.82088e-011 -2.45093e-011 5.71991e-013
196
root  -28.0936 36.3761 -10.8384 57.1563 -84.1326 -69.41
RightUpLeg  -11.8718 1.28965 2.21741
RightLeg  45.0253 -7.22976 -8.0265
RightFoot  -16.3511 0.618623 16.6435
RightToes  -5.8209e-011 0 -3.6325e-017
Spine  10.5525 -5.69528 2.86419
Spine1  0.23654 -5.21608 4.8147
HEad  1.25112 -4.58078 -3.47349
LeftShoulder1  0.463761 5.80787 32.2306
LeftArm  -59.1413 -39.6399 -11.2036
LeftForeArm  -14.7524 -43.0163 -10.3051
LeftHand  -1.45933 -2.3876 21.8659
RightShoulder  1.23541 -9.41885 -32.9101
RightArm  -68.1566 23.8109 14.1804
RightForeArm  -4.79847 63.9864 23.1535
RightHand  -6.0831 11.1124 -41.2333
LeftUpLeg  -5.6139 -5.56176 10.6784
LeftLeg  70.533 -2.5577 -7.39516
LeftFoot  6.35929 2.40478 -15.5993
LeftToes  6.82088e-011 -2.45093e-011 5.71991e-013
197
root  -29.4289 37.1809 -10.53 82.6362 -85.7462 -94.9709
RightUpLeg  -7.59905 1.81262 0.461743
RightLeg  40.5115 -6.23425 -5.98873
RightFoot  -14.6415 0.404071 17.3783
RightToes  -5.8209e-011 0 -3.6325e-017
Spine  8.1893 -4.70249 1.27305
Spine1  2.09973 -4.76024 5.22739
HEad  3.36506 -4.02573 -3.72298
LeftShoulder1  0.40564 5.65822 30.82
LeftArm  -50.5826 -40.3719 -14.919
LeftForeArm  -15.3379 -42.6336 -11.0911
LeftHand  -1.38029 -2.22405 21.0925
RightShoulder  1.1537 -8.96402 -33.1496
RightArm  -60.5913 26.5715 16.0755
RightForeArm  -10.3591 58.0512 18.8603
RightHand  -6.81521 12.1314 -43.3419
LeftUpLeg  -7.67999 -2.51976 9.96443
LeftLeg  66.9772 0.657916 2.26518
LeftFoot  2.45336 1.33463 -11.1741
LeftToes  6.82088e-011 -2.45093e-011 5.71991e-013
198
root  -30.6647 38.3292 -10.1589 132.643 -86.4139 -144.081
RightUpLeg  -4.12593 3.57692 -2.31836
RightLeg  34.2688 -4.93697 -3.87796
RightFoot  -10.0451 -0.277045 18.0027
RightToes  -5.8209e-011 0 -3.6325e-017
Spine  7.00511 -3.75712 -0.817605
Spine1  2.30509 -4.20235 4.66131
HEad  4.96127 -3.8814 -3.10953
LeftShoulder1  0.280817 5.4557 26.0066
LeftArm  -50.6962 -35.176 -15.955
LeftForeArm  -7.65277 -59.9827 -22.5407
LeftHand  -1.10371 -1.5369 18.4779
RightShoulder  0.907453 -8.55986 -29.6758
RightArm  -60.1074 25.5383 18.5516
RightForeArm  -0.992811 67.0257 30.2627
RightHand  -5.57688 10.3369 -39.7681
LeftUpLeg  -9.33877 1.29192 8.15849
LeftLeg  58.7764 3.95569 7.60861
LeftFoot  0.871283 0.749623 -7.10514
LeftToes  6.82088e-011 -2.45093e-011 5.71991e-013
199
root  -31.7994 39.3456 -9.66959 167.707 -84.3776 -177.092
RightUpLeg  -3.12815 4.64315 -5.05431
RightLeg  29.1906 -3.03279 -2.06915
RightFoot  -4.39616 -1.1865 18.8991
RightToes  -5.8209e-011 0 -3.6325e-017
Spine  6.46013 -3.06281 -1.63548
Spine1  1.57886 -3.58061 3.8013
HEad  4.43285 -4.11979 -2.45304
LeftShoulder1  0.268385 6.11137 21.4877
LeftArm  -54.582 -27.4877 -13.6184
LeftForeArm  31.6589 -77.4929 -70.0838
LeftHand  -0.655362 0.347859 15.154
RightShoulder  0.673024 -8.41058 -25.0486
RightArm  -63.8591 20.6441 18.602
RightForeArm  47.274 78.1584 79.925
RightHand  -4.39113 8.21697 -36.5935
LeftUpLeg  -11.2683 3.84155 6.50473
LeftLeg  47.8078 6.0852 7.65473
LeftFoot  -0.863423 0.705612 -7.66487
LeftToes  6.82088e-011 -2.45093e-011 5.71991e-013
200
root  -32.8877 39.9771 -9.12123 179.037 -81.7631 174.173
RightUpLeg  -4.09748 4.03743 -7.68763
RightLeg  26.5076 -1.27794 -0.915646
RightFoot  -0.131824 -1.929 19.4886
RightToes  -5.8209e-011 0 -3.6325e-017
Spine  6.05634 -2.24685 -2.29066
Spine1  0.808818 -2.99 4.08359
HEad  1.96006 -4.05991 -2.68307
LeftShoulder1  0.46269 8.68618 19.7476
LeftArm  -61.4225 -21.183 -11.4249
LeftForeArm  95.5205 -72.3137 -139.737
LeftHand  -0.404281 2.07726 14.1439
RightShoulder  0.612645 -8.77426 -22.688
RightArm  -70.2849 13.9076 16.1306
RightForeArm  108.237 72.5527 140.448
RightHand  -4.52345 8.44944 -36.9451
LeftUpLeg  -13.6903 3.92493 5.08652
LeftLeg  35.8232 5.76908 4.88429
LeftFoot  -1.50607 0.746947 -8.58305
LeftToes  6.82088e-011 -2.45093e-011 5.71991e-013
201
root  -33.8877 40.1813 -8.60372 -173.184 -79.3657 168.473
RightUpLeg  -5.55618 3.29274 -10.2327
RightLeg  26.1976 -0.935745 -0.731196
RightFoot  1.21824 -2.20123 19.8948
RightToes  -5.8209e-011 0 -3.6325e-017
Spine  6.11885 -1.42043 -3.83892
Spine1  0.548473 -2.57558 4.89674
HEad  -1.25095 -3.55751 -3.39755
LeftShoulder1  0.8248 13.0163 19.4905
LeftArm  -70.5259 -18.822 -10.7501
LeftForeArm  109.568 -63.2817 -155.08
LeftHand  -0.424418 2.41302 16.2454
RightShoulder  0.719002 -9.59442 -22.8924
RightArm  -78.5042 7.64929 13.3427
RightForeArm  121.949 64.3379 154.891
RightHand  -4.93267 9.21116 -38.1179
LeftUpLeg  -16.3841 -0.412793 4.25578
LeftLeg  24.8065 4.29616 2.45105
LeftFoot  2.09271 0.641885 -5.71149
LeftToes  6.82088e-011 -2.45093e-011 5.71991e-013
